<svg width="168" height="32" viewBox="0 0 168 32" fill="none" xmlns="http://www.w3.org/2000/svg">
<rect y="3.5" width="25" height="25" rx="5" fill="#F59E0B"/>
<path d="M6.75 9.375H13.75C15.675 9.375 17.25 10.95 17.25 12.875C17.25 14.8 15.675 16.375 13.75 16.375H6.75V9.375Z" stroke="#1A1208" stroke-width="1.75" stroke-linejoin="round"/>
<path d="M6.75 16.375L12 21.625" stroke="#1A1208" stroke-width="1.75" stroke-linecap="round"/>
<path d="M30.68 24V8.64H49.232C50.688 8.64 51.992 8.808 53.144 9.144C54.312 9.464 55.232 10.008 55.904 10.776C56.592 11.544 56.936 12.592 56.936 13.92C56.936 14.8 56.776 15.528 56.456 16.104C56.136 16.68 55.696 17.128 55.136 17.448C54.576 17.768 53.936 18 53.216 18.144C52.496 18.288 51.744 18.376 50.96 18.408L49.208 18.072C51.112 18.088 52.576 18.168 53.6 18.312C54.64 18.456 55.36 18.72 55.76 19.104C56.176 19.472 56.384 20.008 56.384 20.712V24H50.384V21.432C50.384 20.952 50.288 20.592 50.096 20.352C49.92 20.096 49.52 19.92 48.896 19.824C48.288 19.728 47.344 19.68 46.064 19.68H36.68V24H30.68ZM36.68 15.672H49.232C49.712 15.672 50.112 15.592 50.432 15.432C50.768 15.272 50.936 14.968 50.936 14.52C50.936 14.104 50.768 13.824 50.432 13.68C50.112 13.52 49.712 13.44 49.232 13.44H36.68V15.672ZM75.6478 19.776H81.3118C81.1678 20.704 80.7038 21.512 79.9198 22.2C79.1518 22.888 78.0238 23.424 76.5358 23.808C75.0638 24.176 73.1838 24.36 70.8958 24.36C68.4798 24.36 66.3918 24.168 64.6318 23.784C62.8878 23.4 61.5438 22.752 60.5998 21.84C59.6558 20.928 59.1838 19.696 59.1838 18.144C59.1838 16.608 59.6398 15.384 60.5518 14.472C61.4798 13.544 62.8158 12.88 64.5598 12.48C66.3038 12.08 68.4158 11.88 70.8958 11.88C73.3278 11.88 75.3198 12.096 76.8718 12.528C78.4238 12.96 79.5678 13.664 80.3038 14.64C81.0398 15.6 81.3918 16.904 81.3598 18.552H65.0398C65.1198 18.968 65.3438 19.352 65.7118 19.704C66.0958 20.056 66.6798 20.344 67.4638 20.568C68.2638 20.776 69.3278 20.88 70.6558 20.88C72.0318 20.88 73.1598 20.784 74.0398 20.592C74.9358 20.4 75.4718 20.128 75.6478 19.776ZM70.6558 15.36C68.9598 15.36 67.6638 15.544 66.7678 15.912C65.8878 16.28 65.3678 16.648 65.2078 17.016H75.7678C75.6558 16.6 75.2078 16.224 74.4238 15.888C73.6398 15.536 72.3838 15.36 70.6558 15.36ZM93.74 21.84L91.004 21.792L97.052 12.24H103.412L95.036 24H89.612L81.62 12.24H87.956L93.74 21.84ZM119.874 19.776H125.538C125.394 20.704 124.93 21.512 124.146 22.2C123.378 22.888 122.25 23.424 120.762 23.808C119.29 24.176 117.41 24.36 115.122 24.36C112.706 24.36 110.618 24.168 108.858 23.784C107.114 23.4 105.77 22.752 104.826 21.84C103.882 20.928 103.41 19.696 103.41 18.144C103.41 16.608 103.866 15.384 104.778 14.472C105.706 13.544 107.042 12.88 108.786 12.48C110.53 12.08 112.642 11.88 115.122 11.88C117.554 11.88 119.546 12.096 121.098 12.528C122.65 12.96 123.794 13.664 124.53 14.64C125.266 15.6 125.618 16.904 125.586 18.552H109.266C109.346 18.968 109.57 19.352 109.938 19.704C110.322 20.056 110.906 20.344 111.69 20.568C112.49 20.776 113.554 20.88 114.882 20.88C116.258 20.88 117.386 20.784 118.266 20.592C119.162 20.4 119.698 20.128 119.874 19.776ZM114.882 15.36C113.186 15.36 111.89 15.544 110.994 15.912C110.114 16.28 109.594 16.648 109.434 17.016H119.994C119.882 16.6 119.434 16.224 118.65 15.888C117.866 15.536 116.61 15.36 114.882 15.36ZM127.87 7.44H133.63V24H127.87V7.44ZM144.87 24.336C143.142 24.336 141.606 24.096 140.262 23.616C138.918 23.12 137.854 22.408 137.07 21.48C136.302 20.552 135.918 19.432 135.918 18.12C135.918 16.744 136.302 15.592 137.07 14.664C137.854 13.736 138.918 13.04 140.262 12.576C141.606 12.112 143.142 11.88 144.87 11.88C146.79 11.88 148.446 12.144 149.838 12.672C151.246 13.184 152.326 13.912 153.078 14.856C153.846 15.784 154.23 16.872 154.23 18.12C154.23 19.048 154.014 19.896 153.582 20.664C153.15 21.416 152.526 22.072 151.71 22.632C150.894 23.176 149.91 23.6 148.758 23.904C147.606 24.192 146.31 24.336 144.87 24.336ZM147.03 20.688C148.246 20.688 149.358 20.616 150.366 20.472C151.39 20.312 152.206 20.048 152.814 19.68C153.438 19.312 153.75 18.792 153.75 18.12C153.75 17.432 153.438 16.904 152.814 16.536C152.206 16.168 151.39 15.912 150.366 15.768C149.358 15.624 148.246 15.552 147.03 15.552C145.398 15.552 144.134 15.768 143.238 16.2C142.342 16.616 141.894 17.256 141.894 18.12C141.894 18.68 142.094 19.152 142.494 19.536C142.894 19.92 143.478 20.208 144.246 20.4C145.014 20.592 145.942 20.688 147.03 20.688ZM153.75 12.24H159.51V24H154.086C154.086 24 154.054 23.816 153.99 23.448C153.942 23.08 153.886 22.552 153.822 21.864C153.774 21.176 153.75 20.368 153.75 19.44V12.24Z" fill="#1A1208"/>
<path d="M164.173 24.2216C163.61 24.2216 163.127 24.0227 162.724 23.625C162.326 23.2216 162.127 22.7386 162.127 22.1761C162.127 21.6193 162.326 21.142 162.724 20.7443C163.127 20.3466 163.61 20.1477 164.173 20.1477C164.718 20.1477 165.195 20.3466 165.604 20.7443C166.013 21.142 166.218 21.6193 166.218 22.1761C166.218 22.5511 166.121 22.8949 165.928 23.2074C165.741 23.5142 165.494 23.7614 165.187 23.9489C164.88 24.1307 164.542 24.2216 164.173 24.2216Z" fill="#F59E0B"/>
</svg>
